# xmcd
#
# Track frame offsets:
#	150
#	21677
#	37729
#	54756
#	87233
#	103360
#	117012
#	136289
#	158341
#	178593
#	201920
#
# Disc length: 2916 seconds
#
# Revision: 1
# Processed by: cddbd v1.5.2PL0 Copyright (c) Steve Scherf et al.
# Submitted via: audiograbber 1.83.01
#
DISCID=880b620b
DTITLE=Hart, Beth - Bang Bang Boom Boom
DYEAR=1900
DGENRE=blues
TTITLE0=Baddest Blues
TTITLE1=Bang Bang Boom Boom
TTITLE2=Better Man
TTITLE3=Caught Out In The Rain
TTITLE4=Swing My Thing Back Around
TTITLE5=With You Everyday
TTITLE6=Thru The Window Of My Mind
TTITLE7=Spirit Of God
TTITLE8=There In Your Heart
TTITLE9=The Ulgiest House On The Block
TTITLE10=Everything Must Change
EXTD=
EXTT0=
EXTT1=
EXTT2=
EXTT3=
EXTT4=
EXTT5=
EXTT6=
EXTT7=
EXTT8=
EXTT9=
EXTT10=
PLAYORDER=
